<svg xmlns="http://www.w3.org/2000/svg" viewBox="0 0 1200 340" role="img" aria-label="talk2computer — local voice dictation">
  <rect width="1200" height="340" fill="#0b1220"/>
  <rect y="0" width="1200" height="2" fill="#f59e0b" opacity="0.55"/>
  <rect y="338" width="1200" height="2" fill="#f59e0b" opacity="0.55"/>
  <text x="600" y="135" text-anchor="middle"
    font-family="ui-sans-serif, -apple-system, BlinkMacSystemFont, 'Segoe UI', Inter, system-ui, sans-serif"
    font-size="92" font-weight="800" fill="#f8fafc" letter-spacing="-3">talk2computer</text>
  <text x="600" y="183" text-anchor="middle"
    font-family="ui-sans-serif, -apple-system, BlinkMacSystemFont, 'Segoe UI', Inter, system-ui, sans-serif"
    font-size="22" font-weight="400" fill="#94a3b8">Local voice dictation for Windows and macOS</text>
  <g transform="translate(180, 252)" fill="#f59e0b">
    <rect x="0" y="-2.0" width="6" height="4.0" rx="2"/>
    <rect x="12" y="-7.2" width="6" height="14.4" rx="2"/>
    <rect x="24" y="-12.1" width="6" height="24.1" rx="2"/>
    <rect x="36" y="-16.1" width="6" height="32.2" rx="2"/>
    <rect x="48" y="-19.1" width="6" height="38.3" rx="2"/>
    <rect x="60" y="-21.0" width="6" height="42.0" rx="2"/>
    <rect x="72" y="-21.7" width="6" height="43.4" rx="2"/>
    <rect x="84" y="-21.3" width="6" height="42.6" rx="2"/>
    <rect x="96" y="-20.1" width="6" height="40.1" rx="2"/>
    <rect x="108" y="-18.2" width="6" height="36.5" rx="2"/>
    <rect x="120" y="-16.2" width="6" height="32.4" rx="2"/>
    <rect x="132" y="-14.2" width="6" height="28.4" rx="2"/>
    <rect x="144" y="-12.6" width="6" height="25.1" rx="2"/>
    <rect x="156" y="-11.4" width="6" height="22.8" rx="2"/>
    <rect x="168" y="-10.8" width="6" height="21.7" rx="2"/>
    <rect x="180" y="-10.8" width="6" height="21.6" rx="2"/>
    <rect x="192" y="-11.1" width="6" height="22.2" rx="2"/>
    <rect x="204" y="-11.5" width="6" height="23.0" rx="2"/>
    <rect x="216" y="-11.8" width="6" height="23.5" rx="2"/>
    <rect x="228" y="-11.6" width="6" height="23.1" rx="2"/>
    <rect x="240" y="-10.7" width="6" height="21.3" rx="2"/>
    <rect x="252" y="-8.9" width="6" height="17.8" rx="2"/>
    <rect x="264" y="-6.2" width="6" height="12.5" rx="2"/>
    <rect x="276" y="-2.8" width="6" height="5.6" rx="2"/>
    <rect x="288" y="-5.2" width="6" height="10.5" rx="2"/>
    <rect x="300" y="-9.7" width="6" height="19.3" rx="2"/>
    <rect x="312" y="-13.9" width="6" height="27.9" rx="2"/>
    <rect x="324" y="-17.9" width="6" height="35.7" rx="2"/>
    <rect x="336" y="-21.0" width="6" height="42.0" rx="2"/>
    <rect x="348" y="-23.1" width="6" height="46.1" rx="2"/>
    <rect x="360" y="-23.9" width="6" height="47.7" rx="2"/>
    <rect x="372" y="-23.4" width="6" height="46.7" rx="2"/>
    <rect x="384" y="-21.6" width="6" height="43.3" rx="2"/>
    <rect x="396" y="-18.9" width="6" height="37.8" rx="2"/>
    <rect x="408" y="-15.4" width="6" height="30.9" rx="2"/>
    <rect x="420" y="-11.7" width="6" height="23.3" rx="2"/>
    <rect x="432" y="-7.8" width="6" height="15.7" rx="2"/>
    <rect x="444" y="-4.5" width="6" height="8.9" rx="2"/>
    <rect x="456" y="-2.3" width="6" height="4.6" rx="2"/>
    <rect x="468" y="-4.3" width="6" height="8.6" rx="2"/>
    <rect x="480" y="-5.4" width="6" height="10.8" rx="2"/>
    <rect x="492" y="-5.7" width="6" height="11.4" rx="2"/>
    <rect x="504" y="-5.5" width="6" height="10.9" rx="2"/>
    <rect x="516" y="-4.9" width="6" height="9.8" rx="2"/>
    <rect x="528" y="-4.2" width="6" height="8.5" rx="2"/>
    <rect x="540" y="-3.9" width="6" height="7.7" rx="2"/>
    <rect x="552" y="-4.0" width="6" height="7.9" rx="2"/>
    <rect x="564" y="-4.7" width="6" height="9.3" rx="2"/>
    <rect x="576" y="-6.0" width="6" height="12.0" rx="2"/>
    <rect x="588" y="-7.9" width="6" height="15.8" rx="2"/>
    <rect x="600" y="-10.2" width="6" height="20.3" rx="2"/>
    <rect x="612" y="-12.5" width="6" height="25.0" rx="2"/>
    <rect x="624" y="-14.6" width="6" height="29.2" rx="2"/>
    <rect x="636" y="-16.2" width="6" height="32.4" rx="2"/>
    <rect x="648" y="-16.9" width="6" height="33.8" rx="2"/>
    <rect x="660" y="-16.6" width="6" height="33.1" rx="2"/>
    <rect x="672" y="-15.1" width="6" height="30.2" rx="2"/>
    <rect x="684" y="-12.6" width="6" height="25.1" rx="2"/>
    <rect x="696" y="-9.2" width="6" height="18.3" rx="2"/>
    <rect x="708" y="-5.0" width="6" height="10.1" rx="2"/>
    <rect x="720" y="-3.3" width="6" height="6.6" rx="2"/>
    <rect x="732" y="-7.5" width="6" height="15.0" rx="2"/>
    <rect x="744" y="-11.2" width="6" height="22.4" rx="2"/>
    <rect x="756" y="-14.1" width="6" height="28.2" rx="2"/>
    <rect x="768" y="-15.9" width="6" height="31.9" rx="2"/>
    <rect x="780" y="-16.6" width="6" height="33.2" rx="2"/>
    <rect x="792" y="-16.1" width="6" height="32.3" rx="2"/>
    <rect x="804" y="-14.8" width="6" height="29.5" rx="2"/>
    <rect x="816" y="-12.6" width="6" height="25.2" rx="2"/>
    <rect x="828" y="-10.0" width="6" height="20.0" rx="2"/>
  </g>
  <text x="600" y="320" text-anchor="middle"
    font-family="ui-monospace, 'SF Mono', 'JetBrains Mono', Consolas, monospace"
    font-size="12" font-weight="600" fill="#64748b" letter-spacing="4">HOLD · SPEAK · RELEASE</text>
</svg>
